<svg viewBox="0 0 24 24" width="20" height="20" aria-hidden="true" fill="currentColor" xmlns="http://www.w3.org/2000/svg"><path d="M12 2.16c3.2 0 3.58.01 4.85.07 1.17.05 1.8.25 2.23.41.56.22.96.48 1.38.9.42.42.68.82.9 1.38.16.42.36 1.06.41 2.23.06 1.27.07 1.65.07 4.85s-.01 3.58-.07 4.85c-.05 1.17-.25 1.8-.41 2.23-.22.56-.48.96-.9 1.38-.42.42-.82.68-1.38.9-.42.16-1.06.36-2.23.41-1.27.06-1.65.07-4.85.07s-3.58-.01-4.85-.07c-1.17-.05-1.8-.25-2.23-.41a3.7 3.7 0 0 1-1.38-.9 3.7 3.7 0 0 1-.9-1.38c-.16-.42-.36-1.06-.41-2.23-.06-1.27-.07-1.65-.07-4.85s.01-3.58.07-4.85c.05-1.17.25-1.8.41-2.23.22-.56.48-.96.9-1.38.42-.42.82-.68 1.38-.9.42-.16 1.06-.36 2.23-.41C8.42 2.17 8.8 2.16 12 2.16Zm0 1.62c-3.15 0-3.5.01-4.74.07-.97.05-1.5.21-1.85.34-.46.18-.8.4-1.15.74-.34.35-.56.69-.74 1.15-.13.35-.29.88-.34 1.85-.06 1.24-.07 1.59-.07 4.74s.01 3.5.07 4.74c.05.97.21 1.5.34 1.85.18.46.4.8.74 1.15.35.34.69.56 1.15.74.35.13.88.29 1.85.34 1.24.06 1.59.07 4.74.07s3.5-.01 4.74-.07c.97-.05 1.5-.21 1.85-.34.46-.18.8-.4 1.15-.74.34-.35.56-.69.74-1.15.13-.35.29-.88.34-1.85.06-1.24.07-1.59.07-4.74s-.01-3.5-.07-4.74c-.05-.97-.21-1.5-.34-1.85a3.1 3.1 0 0 0-.74-1.15 3.1 3.1 0 0 0-1.15-.74c-.35-.13-.88-.29-1.85-.34-1.24-.06-1.59-.07-4.74-.07Zm0 2.76a5.3 5.3 0 1 1 0 10.6 5.3 5.3 0 0 1 0-10.6Zm0 1.62a3.68 3.68 0 1 0 0 7.36 3.68 3.68 0 0 0 0-7.36Zm5.5-.4a1.24 1.24 0 1 1-2.48 0 1.24 1.24 0 0 1 2.48 0Z"></path></svg>