<svg viewBox="0 0 24 24" width="26" height="26" fill="currentColor" aria-hidden="true" xmlns="http://www.w3.org/2000/svg"><path d="M.06 24l1.69-6.16A11.87 11.87 0 0 1 .15 11.9C.15 5.33 5.5 0 12.08 0a11.82 11.82 0 0 1 8.42 3.49 11.78 11.78 0 0 1 3.49 8.42c0 6.57-5.35 11.9-11.93 11.9a11.96 11.96 0 0 1-5.7-1.45L.06 24Zm6.6-3.8c1.68.99 3.28 1.59 5.42 1.59 5.46 0 9.9-4.43 9.9-9.88 0-5.46-4.44-9.9-9.9-9.9-5.46 0-9.9 4.44-9.9 9.9 0 2.24.66 3.92 1.76 5.68l-1 3.65 3.72-.04Zm11.39-5.55c-.07-.12-.27-.2-.56-.34-.3-.15-1.76-.87-2.03-.97-.27-.1-.47-.15-.66.15-.2.3-.76.96-.93 1.16-.17.2-.34.22-.64.07-.3-.15-1.25-.46-2.39-1.47-.88-.79-1.48-1.76-1.65-2.06-.17-.3-.02-.46.13-.61.13-.13.3-.34.45-.51.15-.17.2-.3.3-.5.1-.2.05-.37-.02-.52-.08-.15-.66-1.6-.91-2.19-.24-.57-.48-.5-.66-.5l-.56-.01c-.2 0-.5.07-.77.37-.27.3-1.02 1-1.02 2.43 0 1.43 1.04 2.82 1.19 3.01.15.2 2.05 3.13 4.97 4.39.69.3 1.23.48 1.65.61.69.22 1.32.19 1.82.12.55-.08 1.76-.72 2-1.41.25-.7.25-1.29.18-1.41Z"></path></svg>